<?xml version="1.0" standalone="no"?>
<!DOCTYPE svg PUBLIC "-//W3C//DTD SVG 20010904//EN"
 "http://www.w3.org/TR/2001/REC-SVG-20010904/DTD/svg10.dtd">
<svg version="1.0" xmlns="http://www.w3.org/2000/svg"
 width="16.000000pt" height="16.000000pt" viewBox="0 0 16.000000 16.000000"
 preserveAspectRatio="xMidYMid meet">
<metadata>
Created by potrace 1.11, written by Peter Selinger 2001-2013
</metadata>
<g transform="translate(0.000000,16.000000) scale(0.016000,-0.016000)"
fill="#000000" stroke="none">
<path d="M495 943 c-123 -8 -212 -44 -297 -122 -52 -48 -114 -145 -124 -194
-2 -12 -6 -33 -9 -47 -17 -80 -4 -184 34 -265 129 -279 493 -344 710 -127 69
69 105 134 123 227 48 235 -105 466 -345 519 -29 6 -70 10 -92 9z m189 -182
l38 -1 -63 -44 c-35 -25 -138 -95 -229 -157 -91 -62 -167 -116 -168 -121 -2
-4 -7 -6 -12 -3 -9 5 104 315 119 324 8 5 106 6 315 2z m-111 -423 c-98 -98
-178 -178 -179 -178 -1 0 8 42 21 93 13 50 26 104 29 118 l6 27 -100 -2 c-55
-1 -100 1 -100 4 0 3 38 30 84 61 l83 56 167 0 167 -1 -178 -178z"/>
</g>
</svg>
